<?xml version='1.0' encoding='utf-8'?>
<svg xmlns:inkscape="http://www.inkscape.org/namespaces/inkscape" xmlns:sodipodi="http://sodipodi.sourceforge.net/DTD/sodipodi-0.dtd" version="1.1" width="1000mm" height="600mm" viewBox="0 -600 1000 600"><sodipodi:namedview><inkscape:page id="page0" x="0.0" y="0" width="1000" height="600" /></sodipodi:namedview><g id="page-1" inkscape:groupmode="layer" inkscape:label="Page 1"><g id="Side 2" transform="translate(229.297,-5.0) rotate(0) "><polygon points="73.5528,-238.802 74.6894,-236.695 76.2191,-234.831 78.083,-233.301 80.1904,-232.164 82.4679,-231.464 82.6962,-231.44 84.8365,-231.228 87.205,-231.464 89.4826,-232.164 91.59,-233.301 93.4539,-234.831 94.9836,-236.695 96.1202,-238.802 96.8201,-241.08 96.8696,-241.547 97.1365,-241.528 97.4956,-241.567 97.8409,-241.68 98.1676,-241.865 98.4707,-242.114 98.6282,-242.306 98.7194,-242.417 98.9042,-242.744 99.018,-243.089 99.0565,-243.448 99.018,-243.807 98.9042,-244.153 98.7194,-244.479 98.6282,-244.59 98.4707,-244.782 98.1676,-245.031 97.8409,-245.216 97.4956,-245.33 97.1365,-245.368 96.8696,-245.349 96.8201,-245.817 96.1202,-248.094 94.9836,-250.202 93.4539,-252.066 91.59,-253.595 89.4826,-254.732 87.205,-255.432 84.8365,-255.668 82.6962,-255.456 82.4679,-255.432 80.1904,-254.732 78.083,-253.595 76.2191,-252.066 74.6894,-250.202 73.5528,-248.094 72.8528,-245.817 72.6165,-243.448 72.8528,-241.08 73.5528,-238.802" fill="none" stroke="red" stroke-width="0.1mm" id="Side 2-p0" /><polygon points="63.2496,-482.818 62.1792,-486.896 55.1306,-486.896 55.1306,-483.896 48.3993,-483.896 48.3993,-486.896 41.348,-486.896 41.348,-483.896 34.6166,-483.896 34.6166,-486.896 27.5653,-486.896 27.5653,-483.896 20.834,-483.896 20.834,-486.896 13.7827,-486.896 13.7827,-483.896 7.05133,-483.896 7.05133,-486.896 3.08,-486.896 0.0,-486.896 0.0,-482.738 0.0,-470.064 3.0,-470.064 3.0,-457.63 0.0,-457.63 0.0,-444.876 3.0,-444.876 3.0,-432.441 0.0,-432.441 0.0,-419.687 3.0,-419.687 3.0,-407.253 0.0,-407.253 0.0,-394.499 3.0,-394.499 3.0,-382.065 0.0,-382.065 0.0,-369.31 3.0,-369.31 3.0,-356.876 0.0,-356.876 0.0,-344.122 3.0,-344.122 3.0,-331.688 0.0,-331.688 0.0,-318.933 3.0,-318.933 3.0,-306.499 0.0,-306.499 0.0,-293.745 3.0,-293.745 3.0,-281.311 0.0,-281.311 0.0,-268.557 3.0,-268.557 3.0,-256.122 0.0,-256.122 0.0,-243.448 0.0,-230.774 3.0,-230.774 3.0,-218.34 0.0,-218.34 0.0,-205.585 3.0,-205.585 3.0,-193.151 0.0,-193.151 0.0,-180.397 3.0,-180.397 3.0,-167.963 0.0,-167.963 0.0,-155.209 3.0,-155.209 3.0,-142.774 0.0,-142.774 0.0,-130.02 3.0,-130.02 3.0,-117.586 0.0,-117.586 0.0,-104.832 3.0,-104.832 3.0,-92.3976 0.0,-92.3976 0.0,-79.6434 3.0,-79.6434 3.0,-67.2091 0.0,-67.2091 0.0,-54.4549 3.0,-54.4549 3.0,-42.0207 0.0,-42.0207 0.0,-29.2665 3.0,-29.2665 3.0,-16.8323 0.0,-16.8323 0.0,-4.15804 0.0,-0.0 3.08,-0.0 7.05133,-0.0 7.05133,-3.0 13.7827,-3.0 13.7827,-0.0 20.834,-0.0 20.834,-3.0 27.5653,-3.0 27.5653,-0.0 34.6166,-0.0 34.6166,-3.0 41.348,-3.0 41.348,-0.0 48.3993,-0.0 48.3993,-3.0 55.1306,-3.0 55.1306,-0.0 62.1792,-0.0 63.2496,-4.07803 66.1474,-3.30157 69.5404,-16.0324 66.6426,-16.8089 69.9887,-29.2665 72.8865,-28.49 76.2795,-41.2208 73.3817,-41.9973 76.7278,-54.4549 79.6256,-53.6785 83.0186,-66.4093 80.1208,-67.1857 83.467,-79.6434 86.3648,-78.8669 89.7577,-91.5977 86.86,-92.3742 90.2061,-104.832 93.1039,-104.055 96.4969,-116.786 93.5991,-117.563 96.9452,-130.02 99.843,-129.244 103.236,-141.975 100.338,-142.751 103.684,-155.209 106.582,-154.432 109.975,-167.163 107.077,-167.939 110.423,-180.397 113.321,-179.621 116.714,-192.351 113.816,-193.128 117.163,-205.585 120.06,-204.809 123.453,-217.54 120.556,-218.316 123.902,-230.774 126.8,-229.997 130.193,-243.448 126.8,-256.899 123.902,-256.122 120.556,-268.58 123.453,-269.356 120.06,-282.087 117.163,-281.311 113.816,-293.768 116.714,-294.545 113.321,-307.276 110.423,-306.499 107.077,-318.957 109.975,-319.733 106.582,-332.464 103.684,-331.688 100.338,-344.145 103.236,-344.922 99.843,-357.653 96.9452,-356.876 93.5991,-369.334 96.4969,-370.11 93.1039,-382.841 90.2061,-382.065 86.86,-394.522 89.7577,-395.299 86.3648,-408.029 83.467,-407.253 80.1208,-419.711 83.0186,-420.487 79.6256,-433.218 76.7278,-432.441 73.3817,-444.899 76.2795,-445.675 72.8865,-458.406 69.9887,-457.63 66.6426,-470.087 69.5404,-470.864 66.1474,-483.595 63.2496,-482.818" fill="none" stroke="red" stroke-width="0.1mm" id="Side 2-p1" /><polygon points="48.3907,-230.854 48.3907,-243.448 48.3907,-256.042 48.3907,-268.637 48.3907,-281.151 30.5944,-281.151 13.6443,-281.151 13.6443,-268.637 13.6443,-256.042 13.6443,-243.448 13.6443,-230.854 13.6443,-218.26 13.6443,-205.745 30.5944,-205.745 48.3907,-205.745 48.3907,-218.26 48.3907,-230.854" fill="none" stroke="red" stroke-width="0.1mm" id="Side 2-p2" /></g><g id="Side 1" transform="translate(361.489,-5.0) rotate(0) "><polygon points="86.86,-92.3742 89.7577,-91.5977 86.3648,-78.8669 83.467,-79.6434 80.1208,-67.1857 83.0186,-66.4093 79.6256,-53.6785 76.7278,-54.4549 73.3817,-41.9973 76.2795,-41.2208 72.8865,-28.49 69.9887,-29.2665 66.6426,-16.8089 69.5404,-16.0324 66.1474,-3.30157 63.2496,-4.07803 62.1792,-0.0 55.1306,-0.0 55.1306,-3.0 48.3993,-3.0 48.3993,-0.0 41.348,-0.0 41.348,-3.0 34.6166,-3.0 34.6166,-0.0 27.5653,-0.0 27.5653,-3.0 20.834,-3.0 20.834,-0.0 13.7827,-0.0 13.7827,-3.0 7.05133,-3.0 7.05133,-0.0 3.08,-0.0 0.0,-0.0 0.0,-4.15804 0.0,-16.8323 3.0,-16.8323 3.0,-29.2665 0.0,-29.2665 0.0,-42.0207 3.0,-42.0207 3.0,-54.4549 0.0,-54.4549 0.0,-67.2091 3.0,-67.2091 3.0,-79.6434 0.0,-79.6434 0.0,-92.3976 3.0,-92.3976 3.0,-104.832 0.0,-104.832 0.0,-117.586 3.0,-117.586 3.0,-130.02 0.0,-130.02 0.0,-142.774 3.0,-142.774 3.0,-155.209 0.0,-155.209 0.0,-167.963 3.0,-167.963 3.0,-180.397 0.0,-180.397 0.0,-193.151 3.0,-193.151 3.0,-205.585 0.0,-205.585 0.0,-218.34 3.0,-218.34 3.0,-230.774 0.0,-230.774 0.0,-243.448 0.0,-256.122 3.0,-256.122 3.0,-268.557 0.0,-268.557 0.0,-281.311 3.0,-281.311 3.0,-293.745 0.0,-293.745 0.0,-306.499 3.0,-306.499 3.0,-318.933 0.0,-318.933 0.0,-331.688 3.0,-331.688 3.0,-344.122 0.0,-344.122 0.0,-356.876 3.0,-356.876 3.0,-369.31 0.0,-369.31 0.0,-382.065 3.0,-382.065 3.0,-394.499 0.0,-394.499 0.0,-407.253 3.0,-407.253 3.0,-419.687 0.0,-419.687 0.0,-432.441 3.0,-432.441 3.0,-444.876 0.0,-444.876 0.0,-457.63 3.0,-457.63 3.0,-470.064 0.0,-470.064 0.0,-482.738 0.0,-486.896 3.08,-486.896 7.05133,-486.896 7.05133,-483.896 13.7827,-483.896 13.7827,-486.896 20.834,-486.896 20.834,-483.896 27.5653,-483.896 27.5653,-486.896 34.6166,-486.896 34.6166,-483.896 41.348,-483.896 41.348,-486.896 48.3993,-486.896 48.3993,-483.896 55.1306,-483.896 55.1306,-486.896 62.1792,-486.896 63.2496,-482.818 66.1474,-483.595 69.5404,-470.864 66.6426,-470.087 69.9887,-457.63 72.8865,-458.406 76.2795,-445.675 73.3817,-444.899 76.7278,-432.441 79.6256,-433.218 83.0186,-420.487 80.1208,-419.711 83.467,-407.253 86.3648,-408.029 89.7577,-395.299 86.86,-394.522 90.2061,-382.065 93.1039,-382.841 96.4969,-370.11 93.5991,-369.334 96.9452,-356.876 99.843,-357.653 103.236,-344.922 100.338,-344.145 103.684,-331.688 106.582,-332.464 109.975,-319.733 107.077,-318.957 110.423,-306.499 113.321,-307.276 116.714,-294.545 113.816,-293.768 117.163,-281.311 120.06,-282.087 123.453,-269.356 120.556,-268.58 123.902,-256.122 126.8,-256.899 130.193,-243.448 126.8,-229.997 123.902,-230.774 120.556,-218.316 123.453,-217.54 120.06,-204.809 117.163,-205.585 113.816,-193.128 116.714,-192.351 113.321,-179.621 110.423,-180.397 107.077,-167.939 109.975,-167.163 106.582,-154.432 103.684,-155.209 100.338,-142.751 103.236,-141.975 99.843,-129.244 96.9452,-130.02 93.5991,-117.563 96.4969,-116.786 93.1039,-104.055 90.2061,-104.832 86.86,-92.3742" fill="none" stroke="red" stroke-width="0.1mm" id="Side 1-p0" /></g><g id="Front 1" transform="translate(493.681,-229.297) rotate(0) "><polygon points="103.449,-48.1885 100.766,-46.3922 98.8206,-44.4473 98.4793,-44.106 96.6831,-41.4227 95.4458,-38.4657 95.2863,-37.6073 94.9826,-36.0431 98.0005,-36.0574 98.3176,-37.6371 98.3362,-37.6972 99.3172,-40.0793 100.768,-42.2561 102.615,-44.1032 103.37,-44.6073 103.864,-44.9374 104.792,-45.5544 107.235,-46.554 108.814,-46.8642 108.83,-49.9369 106.407,-49.4258 104.005,-48.4247 103.449,-48.1885" fill="none" stroke="red" stroke-width="0.1mm" id="Front 1-p0" /><polygon points="95.3722,-46.6846 93.9842,-44.6073 93.1608,-43.37 91.6375,-39.6613 91.3025,-37.6627 91.0232,-36.0574 89.5348,-36.0574 88.3378,-36.0418 88.6692,-37.6048 89.2189,-40.3533 89.6148,-41.2942 90.9287,-44.4661 90.9444,-44.4901 93.4493,-48.2341 96.5539,-51.3387 96.6375,-51.4222 100.381,-53.9272 104.005,-55.4339 104.518,-55.6526 108.83,-56.5338 108.814,-53.9411 105.208,-53.2341 103.883,-52.6914 101.502,-51.7108 101.179,-51.4987 98.1869,-49.4993 95.3722,-46.6846" fill="none" stroke="red" stroke-width="0.1mm" id="Front 1-p1" /><polygon points="222.297,-51.3387 219.297,-51.3387 219.297,-44.6073 222.297,-44.6073 222.297,-37.556 219.297,-37.556 219.297,-30.8247 222.297,-30.8247 222.297,-23.7733 219.297,-23.7733 219.297,-17.042 222.297,-17.042 222.297,-9.99069 219.297,-9.99069 219.297,-3.09937 204.888,-3.09937 204.888,-0.0 190.319,-0.0 190.319,-3.09937 176.07,-3.09937 176.07,-0.0 161.501,-0.0 161.501,-3.09937 147.251,-3.09937 147.251,-0.0 132.682,-0.0 132.682,-3.09937 118.433,-3.09937 118.433,-0.0 103.864,-0.0 103.864,-3.09937 89.6148,-3.09937 89.6148,-0.0 75.0457,-0.0 75.0457,-3.09937 60.7966,-3.09937 60.7966,-0.0 46.2274,-0.0 46.2274,-3.09937 31.9783,-3.09937 31.9783,-0.0 17.4091,-0.0 17.4091,-3.09937 3.0,-3.09937 3.0,-9.99069 0.0,-9.99069 0.0,-17.042 3.0,-17.042 3.0,-23.7733 0.0,-23.7733 0.0,-30.8247 3.0,-30.8247 3.0,-37.556 0.0,-37.556 0.0,-44.6073 3.0,-44.6073 3.0,-51.3387 0.0,-51.3387 0.0,-58.39 3.0,-58.39 3.0,-62.2013 3.0,-65.2813 17.5691,-65.2813 17.5691,-62.2813 31.8183,-62.2813 31.8183,-65.2813 46.3874,-65.2813 46.3874,-62.2813 60.6366,-62.2813 60.6366,-65.2813 75.2057,-65.2813 75.2057,-62.2813 89.4548,-62.2813 89.4548,-65.2813 104.024,-65.2813 104.024,-62.2813 118.273,-62.2813 118.273,-65.2813 132.842,-65.2813 132.842,-62.2813 147.091,-62.2813 147.091,-65.2813 161.661,-65.2813 161.661,-62.2813 175.91,-62.2813 175.91,-65.2813 190.479,-65.2813 190.479,-62.2813 204.728,-62.2813 204.728,-65.2813 219.297,-65.2813 219.297,-62.2013 219.297,-58.39 222.297,-58.39 222.297,-51.3387" fill="none" stroke="red" stroke-width="0.1mm" id="Front 1-p2" /><polygon points="118.414,-12.4998 117.089,-11.9571 113.483,-11.2501 113.483,-10.0707 113.467,-8.65738 117.779,-9.53854 118.292,-9.75726 119.242,-10.1507 121.916,-11.264 125.66,-13.7689 128.848,-16.9571 128.905,-17.042 131.353,-20.7011 132.682,-23.897 132.69,-23.9146 133.078,-24.8378 133.959,-29.1494 132.762,-29.1338 131.274,-29.1338 130.66,-25.5299 129.947,-23.7921 129.136,-21.8212 126.925,-18.5065 125.3,-16.882 124.11,-15.6919 120.796,-13.4804 118.414,-12.4998" fill="none" stroke="red" stroke-width="0.1mm" id="Front 1-p3" /><polygon points="108.403,-22.3464 106.691,-23.0678 105.4,-23.9333 105.128,-24.115 104.024,-25.2194 103.795,-25.448 102.748,-27.0104 102.027,-28.7261 101.896,-29.1524 103.944,-29.1338 105.168,-29.1338 105.459,-28.3957 106.152,-27.3531 107.033,-26.4714 108.077,-25.7786 108.814,-25.4959 108.814,-23.8533 108.83,-22.2396 108.403,-22.3464" fill="none" stroke="red" stroke-width="0.1mm" id="Front 1-p4" /><polygon points="117.505,-19.6368 118.433,-20.2538 119.682,-21.088 121.529,-22.9351 122.089,-23.7733 122.98,-25.1119 123.98,-27.5541 124.297,-29.1338 127.315,-29.1481 126.851,-26.7255 125.68,-23.9146 125.614,-23.7685 123.818,-21.0852 121.532,-18.7989 118.902,-17.042 118.848,-17.0027 118.292,-16.7665 115.89,-15.7654 113.467,-15.2543 113.483,-16.962 113.483,-18.327 115.062,-18.6372 117.505,-19.6368" fill="none" stroke="red" stroke-width="0.1mm" id="Front 1-p5" /><polygon points="115.264,-26.4714 116.145,-27.3531 116.838,-28.3957 117.129,-29.1338 118.353,-29.1338 120.401,-29.1524 120.27,-28.7261 119.549,-27.0104 118.502,-25.448 118.273,-25.2194 117.169,-24.115 116.897,-23.9333 115.606,-23.0678 113.894,-22.3464 113.468,-22.2396 113.483,-23.8533 113.483,-25.4959 114.22,-25.7786 115.264,-26.4714" fill="none" stroke="red" stroke-width="0.1mm" id="Front 1-p6" /><polygon points="115.264,-38.7198 114.22,-39.4125 113.483,-39.6953 113.468,-42.9516 113.894,-42.8448 115.606,-42.1234 117.169,-41.0761 118.273,-39.9718 118.502,-39.7432 119.549,-38.1808 119.806,-37.5748 120.27,-36.4651 120.401,-36.0387 118.353,-36.0574 117.129,-36.0574 116.838,-36.7955 116.227,-37.716 116.145,-37.8381 115.264,-38.7198" fill="none" stroke="red" stroke-width="0.1mm" id="Front 1-p7" /><polygon points="118.292,-55.4339 117.779,-55.6526 113.467,-56.5338 113.483,-53.9411 117.089,-53.2341 118.414,-52.6914 120.796,-51.7108 121.118,-51.4987 124.11,-49.4993 126.925,-46.6846 128.313,-44.6073 129.136,-43.37 130.66,-39.6613 130.995,-37.6627 131.274,-36.0574 132.762,-36.0574 133.959,-36.0418 133.628,-37.6048 133.078,-40.3533 132.682,-41.2942 131.368,-44.4661 131.353,-44.4901 128.848,-48.2341 125.743,-51.3387 125.66,-51.4222 121.916,-53.9272 118.292,-55.4339" fill="none" stroke="red" stroke-width="0.1mm" id="Front 1-p8" /><polygon points="100.381,-11.264 103.055,-10.1507 104.005,-9.75726 104.518,-9.53854 108.83,-8.65738 108.814,-10.0707 108.814,-11.2501 105.208,-11.9571 103.883,-12.4998 101.502,-13.4804 98.1869,-15.6919 96.9968,-16.882 95.3722,-18.5065 93.1608,-21.8212 92.3501,-23.7921 91.6375,-25.5299 91.0232,-29.1338 89.5348,-29.1338 88.3378,-29.1494 89.2189,-24.8378 89.6076,-23.9146 89.6148,-23.897 90.9444,-20.7011 93.3926,-17.042 93.4493,-16.9571 96.6375,-13.7689 100.381,-11.264" fill="none" stroke="red" stroke-width="0.1mm" id="Front 1-p9" /><polygon points="102.615,-21.088 103.864,-20.2538 104.792,-19.6368 107.235,-18.6372 108.814,-18.327 108.814,-16.962 108.83,-15.2543 106.407,-15.7654 104.005,-16.7665 103.449,-17.0027 103.395,-17.042 100.766,-18.7989 98.4793,-21.0852 96.6831,-23.7685 96.6168,-23.9146 95.4458,-26.7255 94.9826,-29.1481 98.0005,-29.1338 98.3176,-27.5541 99.3172,-25.1119 100.208,-23.7733 100.768,-22.9351 102.615,-21.088" fill="none" stroke="red" stroke-width="0.1mm" id="Front 1-p10" /><polygon points="101.896,-36.0387 103.944,-36.0574 105.168,-36.0574 105.459,-36.7955 106.07,-37.716 106.152,-37.8381 107.033,-38.7198 108.077,-39.4125 108.814,-39.6953 108.83,-42.9516 108.403,-42.8448 106.691,-42.1234 105.128,-41.0761 104.024,-39.9718 103.795,-39.7432 102.748,-38.1808 102.491,-37.5748 102.027,-36.4651 101.896,-36.0387" fill="none" stroke="red" stroke-width="0.1mm" id="Front 1-p11" /><polygon points="122.98,-40.0793 121.529,-42.2561 119.682,-44.1032 118.927,-44.6073 118.433,-44.9374 117.505,-45.5544 115.062,-46.554 113.483,-46.8642 113.467,-49.9369 115.89,-49.4258 118.292,-48.4247 118.848,-48.1885 121.532,-46.3922 123.476,-44.4473 123.818,-44.106 125.614,-41.4227 126.851,-38.4657 127.011,-37.6073 127.315,-36.0431 124.297,-36.0574 123.98,-37.6371 123.961,-37.6972 122.98,-40.0793" fill="none" stroke="red" stroke-width="0.1mm" id="Front 1-p12" /></g><g id="Front 2" transform="translate(5.0,-493.896) rotate(0) "><polygon points="103.864,-44.4458 102.81,-43.7414 100.963,-41.8944 99.5115,-39.7175 98.6804,-37.6972 98.5119,-37.2753 98.1948,-35.6956 95.1769,-35.6813 95.5466,-37.6073 95.6401,-38.1039 96.8774,-41.0609 98.6736,-43.7443 99.3767,-44.4473 100.96,-46.0305 103.643,-47.8267 104.005,-47.9824 106.602,-49.064 109.024,-49.5751 109.008,-46.5024 107.429,-46.1922 104.987,-45.1926 104.106,-44.6073 103.864,-44.4458" fill="none" stroke="red" stroke-width="0.1mm" id="Front 2-p0" /><polygon points="93.6436,-47.8723 91.3551,-44.4473 91.1387,-44.1283 89.6148,-40.4633 89.4132,-39.9916 88.9355,-37.6048 88.5321,-35.68 89.5348,-35.6956 91.2176,-35.6956 91.558,-37.6627 91.8318,-39.2995 93.3551,-43.0082 94.4203,-44.6073 95.5666,-46.3229 98.3812,-49.1376 101.696,-51.349 102.071,-51.4987 103.883,-52.2491 105.403,-52.8723 109.008,-53.5793 109.024,-56.172 104.713,-55.2909 104.005,-54.9917 100.576,-53.5654 97.2481,-51.3387 96.8318,-51.0605 93.6436,-47.8723" fill="none" stroke="red" stroke-width="0.1mm" id="Front 2-p1" /><polygon points="190.319,-0.0 204.888,-0.0 204.888,-3.09937 219.297,-3.09937 219.297,-9.99069 222.297,-9.99069 222.297,-17.042 219.297,-17.042 219.297,-23.7733 222.297,-23.7733 222.297,-30.8247 219.297,-30.8247 219.297,-37.556 222.297,-37.556 222.297,-44.6073 219.297,-44.6073 219.297,-51.3387 222.297,-51.3387 222.297,-58.39 219.297,-58.39 219.297,-62.2013 219.297,-65.2813 204.728,-65.2813 204.728,-62.2813 190.479,-62.2813 190.479,-65.2813 175.91,-65.2813 175.91,-62.2813 161.661,-62.2813 161.661,-65.2813 147.091,-65.2813 147.091,-62.2813 132.842,-62.2813 132.842,-65.2813 118.273,-65.2813 118.273,-62.2813 104.024,-62.2813 104.024,-65.2813 89.4548,-65.2813 89.4548,-62.2813 75.2057,-62.2813 75.2057,-65.2813 60.6366,-65.2813 60.6366,-62.2813 46.3874,-62.2813 46.3874,-65.2813 31.8183,-65.2813 31.8183,-62.2813 17.5691,-62.2813 17.5691,-65.2813 3.0,-65.2813 3.0,-62.2013 3.0,-58.39 0.0,-58.39 0.0,-51.3387 3.0,-51.3387 3.0,-44.6073 0.0,-44.6073 0.0,-37.556 3.0,-37.556 3.0,-30.8247 0.0,-30.8247 0.0,-23.7733 3.0,-23.7733 3.0,-17.042 0.0,-17.042 0.0,-9.99069 3.0,-9.99069 3.0,-3.09937 17.4091,-3.09937 17.4091,-0.0 31.9783,-0.0 31.9783,-3.09937 46.2274,-3.09937 46.2274,-0.0 60.7966,-0.0 60.7966,-3.09937 75.0457,-3.09937 75.0457,-0.0 89.6148,-0.0 89.6148,-3.09937 103.864,-3.09937 103.864,-0.0 118.433,-0.0 118.433,-3.09937 132.682,-3.09937 132.682,-0.0 147.251,-0.0 147.251,-3.09937 161.501,-3.09937 161.501,-0.0 176.07,-0.0 176.07,-3.09937 190.319,-3.09937 190.319,-0.0" fill="none" stroke="red" stroke-width="0.1mm" id="Front 2-p2" /><polygon points="108.598,-21.9846 106.885,-22.706 105.323,-23.7533 105.143,-23.9333 104.024,-25.0519 103.99,-25.0862 102.942,-26.6486 102.221,-28.3644 102.09,-28.7907 103.944,-28.772 105.362,-28.772 105.653,-28.0339 106.346,-26.9913 107.228,-26.1096 108.271,-25.4169 109.008,-25.1341 109.008,-23.8533 109.024,-21.8778 108.598,-21.9846" fill="none" stroke="red" stroke-width="0.1mm" id="Front 2-p3" /><polygon points="118.273,-24.6633 117.543,-23.9333 117.363,-23.7533 115.801,-22.706 114.088,-21.9846 113.662,-21.8778 113.677,-23.8533 113.677,-25.1341 114.415,-25.4169 115.458,-26.1096 116.34,-26.9913 117.032,-28.0339 117.324,-28.772 118.353,-28.772 120.596,-28.7907 120.465,-28.3644 119.743,-26.6486 118.696,-25.0862 118.273,-24.6633" fill="none" stroke="red" stroke-width="0.1mm" id="Front 2-p4" /><polygon points="105.653,-36.4337 106.346,-37.4764 106.586,-37.716 107.228,-38.358 108.271,-39.0508 109.008,-39.3335 109.024,-42.5898 108.598,-42.483 106.885,-41.7616 105.323,-40.7144 104.024,-39.4157 103.99,-39.3815 102.942,-37.8191 102.836,-37.5748 102.221,-36.1033 102.09,-35.677 103.944,-35.6956 105.362,-35.6956 105.653,-36.4337" fill="none" stroke="red" stroke-width="0.1mm" id="Front 2-p5" /><polygon points="120.309,-10.1507 118.292,-9.315 117.973,-9.17677 113.662,-8.29562 113.677,-10.0707 113.677,-10.8883 117.283,-11.5953 118.414,-12.0575 120.99,-13.1186 124.304,-15.3301 125.856,-16.882 127.119,-18.1448 129.331,-21.4594 130.291,-23.7921 130.854,-25.1681 131.468,-28.772 132.762,-28.772 134.154,-28.7876 133.272,-24.4761 133.034,-23.9146 132.682,-23.0662 131.547,-20.3393 129.341,-17.042 129.042,-16.5954 125.854,-13.4072 122.11,-10.9022 120.309,-10.1507" fill="none" stroke="red" stroke-width="0.1mm" id="Front 2-p6" /><polygon points="122.525,-23.7733 121.723,-22.5733 119.876,-20.7263 118.433,-19.7622 117.699,-19.275 115.257,-18.2754 113.677,-17.9652 113.677,-16.962 113.661,-14.8925 116.084,-15.4036 118.292,-16.3243 119.043,-16.6409 119.638,-17.042 121.726,-18.4372 124.012,-20.7234 125.808,-23.4067 126.024,-23.9146 127.046,-26.3637 127.509,-28.7864 124.491,-28.772 124.174,-27.1923 123.174,-24.7501 122.525,-23.7733" fill="none" stroke="red" stroke-width="0.1mm" id="Front 2-p7" /><polygon points="120.465,-36.1033 119.85,-37.5748 119.743,-37.8191 118.696,-39.3815 118.273,-39.8043 117.363,-40.7144 115.801,-41.7616 114.088,-42.483 113.662,-42.5898 113.677,-39.3335 114.415,-39.0508 115.458,-38.358 116.1,-37.716 116.34,-37.4764 117.032,-36.4337 117.324,-35.6956 118.353,-35.6956 120.596,-35.677 120.465,-36.1033" fill="none" stroke="red" stroke-width="0.1mm" id="Front 2-p8" /><polygon points="131.547,-44.1283 132.682,-41.4015 133.272,-39.9916 133.75,-37.6048 134.154,-35.68 132.762,-35.6956 131.468,-35.6956 131.128,-37.6627 130.854,-39.2995 129.331,-43.0082 128.265,-44.6073 127.119,-46.3229 124.304,-49.1376 120.99,-51.349 120.615,-51.4987 118.414,-52.4101 117.283,-52.8723 113.677,-53.5793 113.662,-56.172 117.973,-55.2909 118.292,-55.1526 122.11,-53.5654 125.438,-51.3387 125.854,-51.0605 129.042,-47.8723 131.331,-44.4473 131.547,-44.1283" fill="none" stroke="red" stroke-width="0.1mm" id="Front 2-p9" /><polygon points="121.723,-41.8944 123.174,-39.7175 124.005,-37.6972 124.174,-37.2753 124.491,-35.6956 127.509,-35.6813 127.139,-37.6073 127.046,-38.1039 125.808,-41.0609 124.012,-43.7443 123.309,-44.4473 121.726,-46.0305 119.043,-47.8267 118.292,-48.1434 116.084,-49.064 113.661,-49.5751 113.677,-46.5024 115.257,-46.1922 117.699,-45.1926 118.433,-44.7055 118.58,-44.6073 119.876,-43.7414 121.723,-41.8944" fill="none" stroke="red" stroke-width="0.1mm" id="Front 2-p10" /><polygon points="100.576,-10.9022 96.8318,-13.4072 93.6436,-16.5954 93.3452,-17.042 91.1387,-20.3393 89.652,-23.9146 89.6148,-24.0044 89.4132,-24.4761 88.5321,-28.7876 89.5348,-28.772 91.2176,-28.772 91.8318,-25.1681 92.3946,-23.7921 93.3551,-21.4594 95.5666,-18.1448 96.8293,-16.882 98.3812,-15.3301 101.696,-13.1186 103.883,-12.2185 105.403,-11.5953 109.008,-10.8883 109.008,-10.0707 109.024,-8.29562 104.713,-9.17677 104.005,-9.47597 102.376,-10.1507 100.576,-10.9022" fill="none" stroke="red" stroke-width="0.1mm" id="Front 2-p11" /><polygon points="100.963,-22.5733 102.81,-20.7263 103.864,-20.0218 104.987,-19.275 107.429,-18.2754 109.008,-17.9652 109.008,-16.962 109.024,-14.8925 106.602,-15.4036 104.005,-16.4852 103.643,-16.6409 103.048,-17.042 100.96,-18.4372 98.6736,-20.7234 96.8774,-23.4067 96.6613,-23.9146 95.6401,-26.3637 95.1769,-28.7864 98.1948,-28.772 98.5119,-27.1923 99.5115,-24.7501 100.161,-23.7733 100.963,-22.5733" fill="none" stroke="red" stroke-width="0.1mm" id="Front 2-p12" /></g><g id="Top 1" transform="translate(493.681,-227.297) rotate(90) "><polygon points="3.08,-254.945 0.0,-254.945 0.0,-250.563 3.0,-250.563 3.0,-237.692 0.0,-237.692 0.0,-224.501 3.0,-224.501 3.0,-211.63 0.0,-211.63 0.0,-198.439 3.0,-198.439 3.0,-185.569 0.0,-185.569 0.0,-172.378 3.0,-172.378 3.0,-159.507 0.0,-159.507 0.0,-146.316 3.0,-146.316 3.0,-133.445 0.0,-133.445 0.0,-120.254 3.0,-120.254 3.0,-107.383 0.0,-107.383 0.0,-94.1915 3.0,-94.1915 3.0,-81.3205 0.0,-81.3205 0.0,-68.1296 3.0,-68.1296 3.0,-55.2586 0.0,-55.2586 0.0,-42.0676 3.0,-42.0676 3.0,-29.1966 0.0,-29.1966 0.0,-16.0056 3.0,-16.0056 3.0,-7.75571 3.0,-5.35641 3.0,-0.0 18.5984,-0.0 18.5984,-5.27641 33.8767,-5.27641 33.8767,-0.0 49.4751,-0.0 49.4751,-5.27641 64.7535,-5.27641 64.7535,-0.0 80.3518,-0.0 80.3518,-5.27641 95.6302,-5.27641 95.6302,-0.0 111.229,-0.0 111.229,-5.27641 126.507,-5.27641 126.507,-0.0 142.105,-0.0 142.105,-5.27641 157.384,-5.27641 157.384,-0.0 172.982,-0.0 172.982,-5.27641 188.26,-5.27641 188.26,-0.0 203.859,-0.0 203.859,-5.27641 219.297,-5.27641 219.297,-7.75571 219.297,-16.0056 222.297,-16.0056 222.297,-29.1966 219.297,-29.1966 219.297,-42.0676 222.297,-42.0676 222.297,-55.2586 219.297,-55.2586 219.297,-68.1296 222.297,-68.1296 222.297,-81.3205 219.297,-81.3205 219.297,-94.1915 222.297,-94.1915 222.297,-107.383 219.297,-107.383 219.297,-120.254 222.297,-120.254 222.297,-133.445 219.297,-133.445 219.297,-146.316 222.297,-146.316 222.297,-159.507 219.297,-159.507 219.297,-172.378 222.297,-172.378 222.297,-185.569 219.297,-185.569 219.297,-198.439 222.297,-198.439 222.297,-211.63 219.297,-211.63 219.297,-224.501 222.297,-224.501 222.297,-237.692 219.297,-237.692 219.297,-250.563 222.297,-250.563 222.297,-254.945 219.217,-254.945 204.728,-254.945 204.728,-250.723 190.479,-250.723 190.479,-254.945 175.91,-254.945 175.91,-250.723 161.661,-250.723 161.661,-254.945 147.091,-254.945 147.091,-250.723 132.842,-250.723 132.842,-254.945 118.273,-254.945 118.273,-250.723 104.024,-250.723 104.024,-254.945 89.4548,-254.945 89.4548,-250.723 75.2057,-250.723 75.2057,-254.945 60.6366,-254.945 60.6366,-250.723 46.3874,-250.723 46.3874,-254.945 31.8183,-254.945 31.8183,-250.723 17.5691,-250.723 17.5691,-254.945 3.08,-254.945" fill="none" stroke="red" stroke-width="0.1mm" id="Top 1-p0" /><polygon points="104.024,-164.534 104.128,-164.619 106.235,-165.755 108.513,-166.455 110.881,-166.692 113.25,-166.455 115.527,-165.755 117.635,-164.619 118.273,-164.095 119.499,-163.089 121.028,-161.225 122.032,-159.351 122.165,-159.118 122.865,-156.84 123.101,-154.472 122.865,-152.103 122.165,-149.826 121.028,-147.718 120.008,-146.475 119.499,-145.854 118.273,-144.849 117.635,-144.325 115.527,-143.188 113.25,-142.488 110.881,-142.252 108.513,-142.488 106.235,-143.188 104.128,-144.325 104.024,-144.41 102.264,-145.854 101.754,-146.475 100.734,-147.718 99.5974,-149.826 98.8975,-152.103 98.6611,-154.472 98.8975,-156.84 99.5974,-159.118 99.7299,-159.351 100.734,-161.225 102.264,-163.089 104.024,-164.534" fill="none" stroke="red" stroke-width="0.1mm" id="Top 1-p1" /><polygon points="148.596,-21.1257 148.596,-34.8245 148.596,-48.5234 132.762,-48.5234 118.353,-48.5234 103.944,-48.5234 89.5348,-48.5234 73.7007,-48.5234 73.7007,-34.8245 73.7007,-21.1257 89.5348,-21.1257 103.944,-21.1257 118.353,-21.1257 132.762,-21.1257 148.596,-21.1257" fill="none" stroke="red" stroke-width="0.1mm" id="Top 1-p2" /><polygon points="85.1648,-213.911 85.8648,-216.189 86.1011,-218.558 85.8648,-220.926 85.1648,-223.204 84.461,-224.506 84.0282,-225.311 82.4985,-227.175 80.6346,-228.705 78.5272,-229.841 76.2497,-230.541 75.11,-230.655 73.8811,-230.778 71.5126,-230.541 69.2351,-229.841 67.1276,-228.705 65.2637,-227.175 63.7341,-225.311 63.3013,-224.506 62.5974,-223.204 61.8975,-220.926 61.6611,-218.558 61.8975,-216.189 62.5974,-213.911 63.7341,-211.804 63.8765,-211.63 65.2637,-209.94 67.1276,-208.41 69.2351,-207.274 71.5126,-206.574 73.8811,-206.338 75.11,-206.46 76.2497,-206.574 78.5272,-207.274 80.6346,-208.41 82.4985,-209.94 83.8858,-211.63 84.0282,-211.804 85.1648,-213.911" fill="none" stroke="red" stroke-width="0.1mm" id="Top 1-p3" /><polygon points="82.4985,-99.0032 84.0282,-97.1393 85.1648,-95.0319 85.414,-94.2251 85.8648,-92.7543 86.1011,-90.3858 85.8648,-88.0173 85.1648,-85.7397 84.0282,-83.6323 82.4985,-81.7684 81.9529,-81.3205 80.6346,-80.2387 78.5272,-79.1021 76.2497,-78.4021 75.11,-78.2884 73.8811,-78.1658 71.5126,-78.4021 69.2351,-79.1021 67.1276,-80.2387 65.8094,-81.3205 65.2637,-81.7684 63.7341,-83.6323 62.5974,-85.7397 61.8975,-88.0173 61.6611,-90.3858 61.8975,-92.7543 62.3483,-94.2251 62.5974,-95.0319 63.7341,-97.1393 65.2637,-99.0032 67.1276,-100.533 69.2351,-101.67 71.5126,-102.369 73.8811,-102.606 75.11,-102.483 76.2497,-102.369 78.5272,-101.67 80.6346,-100.533 82.4985,-99.0032" fill="none" stroke="red" stroke-width="0.1mm" id="Top 1-p4" /><polygon points="46.0084,-146.475 46.2274,-146.742 47.0282,-147.718 48.1648,-149.826 48.8648,-152.103 49.1011,-154.472 48.8648,-156.84 48.1648,-159.118 48.0324,-159.351 47.0282,-161.225 46.2274,-162.201 45.4985,-163.089 43.6346,-164.619 41.5272,-165.755 39.2497,-166.455 36.8811,-166.692 34.5126,-166.455 32.2351,-165.755 31.9737,-165.608 30.1276,-164.619 28.2637,-163.089 26.7341,-161.225 25.7299,-159.351 25.5974,-159.118 24.8975,-156.84 24.6611,-154.472 24.8975,-152.103 25.5974,-149.826 26.7341,-147.718 27.7539,-146.475 28.2637,-145.854 30.1276,-144.325 31.9737,-143.335 32.2351,-143.188 34.5126,-142.488 36.8811,-142.252 39.2497,-142.488 41.5272,-143.188 43.6346,-144.325 45.4985,-145.854 46.0084,-146.475" fill="none" stroke="red" stroke-width="0.1mm" id="Top 1-p5" /><polygon points="191.635,-144.325 193.499,-145.854 194.008,-146.475 195.028,-147.718 196.165,-149.826 196.865,-152.103 197.101,-154.472 196.865,-156.84 196.165,-159.118 196.032,-159.351 195.028,-161.225 193.499,-163.089 191.635,-164.619 190.323,-165.322 189.527,-165.755 187.25,-166.455 184.881,-166.692 182.513,-166.455 180.235,-165.755 178.128,-164.619 176.264,-163.089 176.07,-162.853 174.734,-161.225 173.73,-159.351 173.597,-159.118 172.897,-156.84 172.661,-154.472 172.897,-152.103 173.597,-149.826 174.734,-147.718 175.754,-146.475 176.07,-146.091 176.264,-145.854 178.128,-144.325 180.235,-143.188 182.513,-142.488 184.881,-142.252 187.25,-142.488 189.527,-143.188 190.323,-143.621 191.635,-144.325" fill="none" stroke="red" stroke-width="0.1mm" id="Top 1-p6" /><polygon points="158.461,-224.506 158.028,-225.311 156.499,-227.175 154.635,-228.705 152.527,-229.841 150.25,-230.541 147.881,-230.778 147.187,-230.708 145.513,-230.541 143.235,-229.841 141.128,-228.705 139.264,-227.175 137.734,-225.311 137.301,-224.506 136.597,-223.204 135.897,-220.926 135.661,-218.558 135.897,-216.189 136.597,-213.911 137.734,-211.804 137.876,-211.63 139.264,-209.94 141.128,-208.41 143.235,-207.274 145.513,-206.574 147.187,-206.407 147.881,-206.338 150.25,-206.574 152.527,-207.274 154.635,-208.41 156.499,-209.94 157.886,-211.63 158.028,-211.804 159.165,-213.911 159.865,-216.189 160.101,-218.558 159.865,-220.926 159.165,-223.204 158.461,-224.506" fill="none" stroke="red" stroke-width="0.1mm" id="Top 1-p7" /><polygon points="159.865,-92.7543 159.414,-94.2251 159.165,-95.0319 158.028,-97.1393 156.499,-99.0032 154.635,-100.533 152.527,-101.67 150.25,-102.369 147.881,-102.606 147.187,-102.536 145.513,-102.369 143.235,-101.67 141.128,-100.533 139.264,-99.0032 137.734,-97.1393 136.597,-95.0319 136.348,-94.2251 135.897,-92.7543 135.661,-90.3858 135.897,-88.0173 136.597,-85.7397 137.734,-83.6323 139.264,-81.7684 139.809,-81.3205 141.128,-80.2387 143.235,-79.1021 145.513,-78.4021 147.187,-78.2357 147.881,-78.1658 150.25,-78.4021 152.527,-79.1021 154.635,-80.2387 155.953,-81.3205 156.499,-81.7684 158.028,-83.6323 159.165,-85.7397 159.865,-88.0173 160.101,-90.3858 159.865,-92.7543" fill="none" stroke="red" stroke-width="0.1mm" id="Top 1-p8" /></g><g id="Top 2" transform="translate(750.625,-5.0) rotate(0) "><polygon points="3.08,-254.945 0.0,-254.945 0.0,-250.563 3.0,-250.563 3.0,-237.692 0.0,-237.692 0.0,-224.501 3.0,-224.501 3.0,-211.63 0.0,-211.63 0.0,-198.439 3.0,-198.439 3.0,-185.569 0.0,-185.569 0.0,-172.378 3.0,-172.378 3.0,-159.507 0.0,-159.507 0.0,-146.316 3.0,-146.316 3.0,-133.445 0.0,-133.445 0.0,-120.254 3.0,-120.254 3.0,-107.383 0.0,-107.383 0.0,-94.1915 3.0,-94.1915 3.0,-81.3205 0.0,-81.3205 0.0,-68.1296 3.0,-68.1296 3.0,-55.2586 0.0,-55.2586 0.0,-42.0676 3.0,-42.0676 3.0,-29.1966 0.0,-29.1966 0.0,-16.0056 3.0,-16.0056 3.0,-7.75571 3.0,-5.35641 3.0,-0.0 18.5984,-0.0 18.5984,-5.27641 33.8767,-5.27641 33.8767,-0.0 49.4751,-0.0 49.4751,-5.27641 64.7535,-5.27641 64.7535,-0.0 80.3518,-0.0 80.3518,-5.27641 95.6302,-5.27641 95.6302,-0.0 111.229,-0.0 111.229,-5.27641 126.507,-5.27641 126.507,-0.0 142.105,-0.0 142.105,-5.27641 157.384,-5.27641 157.384,-0.0 172.982,-0.0 172.982,-5.27641 188.26,-5.27641 188.26,-0.0 203.859,-0.0 203.859,-5.27641 219.297,-5.27641 219.297,-7.75571 219.297,-16.0056 222.297,-16.0056 222.297,-29.1966 219.297,-29.1966 219.297,-42.0676 222.297,-42.0676 222.297,-55.2586 219.297,-55.2586 219.297,-68.1296 222.297,-68.1296 222.297,-81.3205 219.297,-81.3205 219.297,-94.1915 222.297,-94.1915 222.297,-107.383 219.297,-107.383 219.297,-120.254 222.297,-120.254 222.297,-133.445 219.297,-133.445 219.297,-146.316 222.297,-146.316 222.297,-159.507 219.297,-159.507 219.297,-172.378 222.297,-172.378 222.297,-185.569 219.297,-185.569 219.297,-198.439 222.297,-198.439 222.297,-211.63 219.297,-211.63 219.297,-224.501 222.297,-224.501 222.297,-237.692 219.297,-237.692 219.297,-250.563 222.297,-250.563 222.297,-254.945 219.217,-254.945 204.728,-254.945 204.728,-250.723 190.479,-250.723 190.479,-254.945 175.91,-254.945 175.91,-250.723 161.661,-250.723 161.661,-254.945 147.091,-254.945 147.091,-250.723 132.842,-250.723 132.842,-254.945 118.273,-254.945 118.273,-250.723 104.024,-250.723 104.024,-254.945 89.4548,-254.945 89.4548,-250.723 75.2057,-250.723 75.2057,-254.945 60.6366,-254.945 60.6366,-250.723 46.3874,-250.723 46.3874,-254.945 31.8183,-254.945 31.8183,-250.723 17.5691,-250.723 17.5691,-254.945 3.08,-254.945" fill="none" stroke="red" stroke-width="0.1mm" id="Top 2-p0" /><polygon points="104.024,-164.534 104.128,-164.619 106.235,-165.755 108.513,-166.455 110.881,-166.692 113.25,-166.455 115.527,-165.755 117.635,-164.619 118.273,-164.095 119.499,-163.089 121.028,-161.225 122.032,-159.351 122.165,-159.118 122.865,-156.84 123.101,-154.472 122.865,-152.103 122.165,-149.826 121.028,-147.718 120.008,-146.475 119.499,-145.854 118.273,-144.849 117.635,-144.325 115.527,-143.188 113.25,-142.488 110.881,-142.252 108.513,-142.488 106.235,-143.188 104.128,-144.325 104.024,-144.41 102.264,-145.854 101.754,-146.475 100.734,-147.718 99.5974,-149.826 98.8975,-152.103 98.6611,-154.472 98.8975,-156.84 99.5974,-159.118 99.7299,-159.351 100.734,-161.225 102.264,-163.089 104.024,-164.534" fill="none" stroke="red" stroke-width="0.1mm" id="Top 2-p1" /><polygon points="148.596,-21.1257 148.596,-34.8245 148.596,-48.5234 132.762,-48.5234 118.353,-48.5234 103.944,-48.5234 89.5348,-48.5234 73.7007,-48.5234 73.7007,-34.8245 73.7007,-21.1257 89.5348,-21.1257 103.944,-21.1257 118.353,-21.1257 132.762,-21.1257 148.596,-21.1257" fill="none" stroke="red" stroke-width="0.1mm" id="Top 2-p2" /><polygon points="85.1648,-213.911 85.8648,-216.189 86.1011,-218.558 85.8648,-220.926 85.1648,-223.204 84.461,-224.506 84.0282,-225.311 82.4985,-227.175 80.6346,-228.705 78.5272,-229.841 76.2497,-230.541 75.11,-230.655 73.8811,-230.778 71.5126,-230.541 69.2351,-229.841 67.1276,-228.705 65.2637,-227.175 63.7341,-225.311 63.3013,-224.506 62.5974,-223.204 61.8975,-220.926 61.6611,-218.558 61.8975,-216.189 62.5974,-213.911 63.7341,-211.804 63.8765,-211.63 65.2637,-209.94 67.1276,-208.41 69.2351,-207.274 71.5126,-206.574 73.8811,-206.338 75.11,-206.46 76.2497,-206.574 78.5272,-207.274 80.6346,-208.41 82.4985,-209.94 83.8858,-211.63 84.0282,-211.804 85.1648,-213.911" fill="none" stroke="red" stroke-width="0.1mm" id="Top 2-p3" /><polygon points="82.4985,-99.0032 84.0282,-97.1393 85.1648,-95.0319 85.414,-94.2251 85.8648,-92.7543 86.1011,-90.3858 85.8648,-88.0173 85.1648,-85.7397 84.0282,-83.6323 82.4985,-81.7684 81.9529,-81.3205 80.6346,-80.2387 78.5272,-79.1021 76.2497,-78.4021 75.11,-78.2884 73.8811,-78.1658 71.5126,-78.4021 69.2351,-79.1021 67.1276,-80.2387 65.8094,-81.3205 65.2637,-81.7684 63.7341,-83.6323 62.5974,-85.7397 61.8975,-88.0173 61.6611,-90.3858 61.8975,-92.7543 62.3483,-94.2251 62.5974,-95.0319 63.7341,-97.1393 65.2637,-99.0032 67.1276,-100.533 69.2351,-101.67 71.5126,-102.369 73.8811,-102.606 75.11,-102.483 76.2497,-102.369 78.5272,-101.67 80.6346,-100.533 82.4985,-99.0032" fill="none" stroke="red" stroke-width="0.1mm" id="Top 2-p4" /><polygon points="46.0084,-146.475 46.2274,-146.742 47.0282,-147.718 48.1648,-149.826 48.8648,-152.103 49.1011,-154.472 48.8648,-156.84 48.1648,-159.118 48.0324,-159.351 47.0282,-161.225 46.2274,-162.201 45.4985,-163.089 43.6346,-164.619 41.5272,-165.755 39.2497,-166.455 36.8811,-166.692 34.5126,-166.455 32.2351,-165.755 31.9737,-165.608 30.1276,-164.619 28.2637,-163.089 26.7341,-161.225 25.7299,-159.351 25.5974,-159.118 24.8975,-156.84 24.6611,-154.472 24.8975,-152.103 25.5974,-149.826 26.7341,-147.718 27.7539,-146.475 28.2637,-145.854 30.1276,-144.325 31.9737,-143.335 32.2351,-143.188 34.5126,-142.488 36.8811,-142.252 39.2497,-142.488 41.5272,-143.188 43.6346,-144.325 45.4985,-145.854 46.0084,-146.475" fill="none" stroke="red" stroke-width="0.1mm" id="Top 2-p5" /><polygon points="191.635,-144.325 193.499,-145.854 194.008,-146.475 195.028,-147.718 196.165,-149.826 196.865,-152.103 197.101,-154.472 196.865,-156.84 196.165,-159.118 196.032,-159.351 195.028,-161.225 193.499,-163.089 191.635,-164.619 190.323,-165.322 189.527,-165.755 187.25,-166.455 184.881,-166.692 182.513,-166.455 180.235,-165.755 178.128,-164.619 176.264,-163.089 176.07,-162.853 174.734,-161.225 173.73,-159.351 173.597,-159.118 172.897,-156.84 172.661,-154.472 172.897,-152.103 173.597,-149.826 174.734,-147.718 175.754,-146.475 176.07,-146.091 176.264,-145.854 178.128,-144.325 180.235,-143.188 182.513,-142.488 184.881,-142.252 187.25,-142.488 189.527,-143.188 190.323,-143.621 191.635,-144.325" fill="none" stroke="red" stroke-width="0.1mm" id="Top 2-p6" /><polygon points="158.461,-224.506 158.028,-225.311 156.499,-227.175 154.635,-228.705 152.527,-229.841 150.25,-230.541 147.881,-230.778 147.187,-230.708 145.513,-230.541 143.235,-229.841 141.128,-228.705 139.264,-227.175 137.734,-225.311 137.301,-224.506 136.597,-223.204 135.897,-220.926 135.661,-218.558 135.897,-216.189 136.597,-213.911 137.734,-211.804 137.876,-211.63 139.264,-209.94 141.128,-208.41 143.235,-207.274 145.513,-206.574 147.187,-206.407 147.881,-206.338 150.25,-206.574 152.527,-207.274 154.635,-208.41 156.499,-209.94 157.886,-211.63 158.028,-211.804 159.165,-213.911 159.865,-216.189 160.101,-218.558 159.865,-220.926 159.165,-223.204 158.461,-224.506" fill="none" stroke="red" stroke-width="0.1mm" id="Top 2-p7" /><polygon points="159.865,-92.7543 159.414,-94.2251 159.165,-95.0319 158.028,-97.1393 156.499,-99.0032 154.635,-100.533 152.527,-101.67 150.25,-102.369 147.881,-102.606 147.187,-102.536 145.513,-102.369 143.235,-101.67 141.128,-100.533 139.264,-99.0032 137.734,-97.1393 136.597,-95.0319 136.348,-94.2251 135.897,-92.7543 135.661,-90.3858 135.897,-88.0173 136.597,-85.7397 137.734,-83.6323 139.264,-81.7684 139.809,-81.3205 141.128,-80.2387 143.235,-79.1021 145.513,-78.4021 147.187,-78.2357 147.881,-78.1658 150.25,-78.4021 152.527,-79.1021 154.635,-80.2387 155.953,-81.3205 156.499,-81.7684 158.028,-83.6323 159.165,-85.7397 159.865,-88.0173 160.101,-90.3858 159.865,-92.7543" fill="none" stroke="red" stroke-width="0.1mm" id="Top 2-p8" /></g><g id="Bottom" transform="translate(5.0,-5.0) rotate(0) "><polygon points="3.0,-243.448 3.0,-255.962 0.0,-255.962 0.0,-268.717 3.0,-268.717 3.0,-281.151 0.0,-281.151 0.0,-293.905 3.0,-293.905 3.0,-306.339 0.0,-306.339 0.0,-319.093 3.0,-319.093 3.0,-331.528 0.0,-331.528 0.0,-344.282 3.0,-344.282 3.0,-356.716 0.0,-356.716 0.0,-369.47 3.0,-369.47 3.0,-381.905 0.0,-381.905 0.0,-394.659 3.0,-394.659 3.0,-407.093 0.0,-407.093 0.0,-419.847 3.0,-419.847 3.0,-432.281 0.0,-432.281 0.0,-445.036 3.0,-445.036 3.0,-457.47 0.0,-457.47 0.0,-470.224 3.0,-470.224 3.0,-483.896 17.4091,-483.896 17.4091,-486.896 31.9783,-486.896 31.9783,-483.896 46.2274,-483.896 46.2274,-486.896 60.7966,-486.896 60.7966,-483.896 75.0457,-483.896 75.0457,-486.896 89.6148,-486.896 89.6148,-483.896 103.864,-483.896 103.864,-486.896 118.433,-486.896 118.433,-483.896 132.682,-483.896 132.682,-486.896 147.251,-486.896 147.251,-483.896 161.501,-483.896 161.501,-486.896 176.07,-486.896 176.07,-483.896 190.319,-483.896 190.319,-486.896 204.888,-486.896 204.888,-483.896 219.297,-483.896 219.297,-470.224 222.297,-470.224 222.297,-457.47 219.297,-457.47 219.297,-445.036 222.297,-445.036 222.297,-432.281 219.297,-432.281 219.297,-419.847 222.297,-419.847 222.297,-407.093 219.297,-407.093 219.297,-394.659 222.297,-394.659 222.297,-381.905 219.297,-381.905 219.297,-369.47 222.297,-369.47 222.297,-356.716 219.297,-356.716 219.297,-344.282 222.297,-344.282 222.297,-331.528 219.297,-331.528 219.297,-319.093 222.297,-319.093 222.297,-306.339 219.297,-306.339 219.297,-293.905 222.297,-293.905 222.297,-281.151 219.297,-281.151 219.297,-268.717 222.297,-268.717 222.297,-255.962 219.297,-255.962 219.297,-243.448 219.297,-230.934 222.297,-230.934 222.297,-218.18 219.297,-218.18 219.297,-205.745 222.297,-205.745 222.297,-192.991 219.297,-192.991 219.297,-180.557 222.297,-180.557 222.297,-167.803 219.297,-167.803 219.297,-155.369 222.297,-155.369 222.297,-142.614 219.297,-142.614 219.297,-130.18 222.297,-130.18 222.297,-117.426 219.297,-117.426 219.297,-104.992 222.297,-104.992 222.297,-92.2376 219.297,-92.2376 219.297,-79.8034 222.297,-79.8034 222.297,-67.0491 219.297,-67.0491 219.297,-54.6149 222.297,-54.6149 222.297,-41.8607 219.297,-41.8607 219.297,-29.4265 222.297,-29.4265 222.297,-16.6723 219.297,-16.6723 219.297,-3.0 204.888,-3.0 204.888,-0.0 190.319,-0.0 190.319,-3.0 176.07,-3.0 176.07,-0.0 161.501,-0.0 161.501,-3.0 147.251,-3.0 147.251,-0.0 132.682,-0.0 132.682,-3.0 118.433,-3.0 118.433,-0.0 103.864,-0.0 103.864,-3.0 89.6148,-3.0 89.6148,-0.0 75.0457,-0.0 75.0457,-3.0 60.7966,-3.0 60.7966,-0.0 46.2274,-0.0 46.2274,-3.0 31.9783,-3.0 31.9783,-0.0 17.4091,-0.0 17.4091,-3.0 3.0,-3.0 3.0,-16.6723 0.0,-16.6723 0.0,-29.4265 3.0,-29.4265 3.0,-41.8607 0.0,-41.8607 0.0,-54.6149 3.0,-54.6149 3.0,-67.0491 0.0,-67.0491 0.0,-79.8034 3.0,-79.8034 3.0,-92.2376 0.0,-92.2376 0.0,-104.992 3.0,-104.992 3.0,-117.426 0.0,-117.426 0.0,-130.18 3.0,-130.18 3.0,-142.614 0.0,-142.614 0.0,-155.369 3.0,-155.369 3.0,-167.803 0.0,-167.803 0.0,-180.557 3.0,-180.557 3.0,-192.991 0.0,-192.991 0.0,-205.745 3.0,-205.745 3.0,-218.18 0.0,-218.18 0.0,-230.934 3.0,-230.934 3.0,-243.448" fill="none" stroke="red" stroke-width="0.1mm" id="Bottom-p0" /></g></g></svg>